<svg xmlns="http://www.w3.org/2000/svg" xmlns:xlink="http://www.w3.org/1999/xlink" width="116" height="158" viewBox="0 0 116 158"><defs><linearGradient id="a" x1="-9.53" y1="143.85" x2="122.81" y2="11.51" gradientUnits="userSpaceOnUse"><stop offset="0" stop-color="#79589f"/><stop offset="1" stop-color="#009edb"/></linearGradient></defs><rect x="3.51" y="3.82" width="111.69" height="152.99" fill="#1e1e60"/><rect x="0.8" y="1.19" width="111.69" height="152.99" stroke="#1e1e60" stroke-miterlimit="10" fill="url(#a)"/><rect x="4.51" y="10.7" width="104.24" height="66.38" rx="5.24" fill="#f6f0e2" opacity="0.7"/><path d="M103.51,11.7a4.24,4.24,0,0,1,4.24,4.24v55.9a4.24,4.24,0,0,1-4.24,4.24H9.75a4.24,4.24,0,0,1-4.24-4.24V15.94A4.24,4.24,0,0,1,9.75,11.7h93.76m0-1H9.75a5.25,5.25,0,0,0-5.24,5.24v55.9a5.25,5.25,0,0,0,5.24,5.24h93.76a5.26,5.26,0,0,0,5.24-5.24V15.94a5.26,5.26,0,0,0-5.24-5.24Z" fill="#1e1e60"/><rect x="4.51" y="81.38" width="104.24" height="67.62" rx="5.24" fill="#f6f0e2" opacity="0.7"/><path d="M103.51,82.38a4.24,4.24,0,0,1,4.24,4.24v57.14a4.25,4.25,0,0,1-4.24,4.24H9.75a4.25,4.25,0,0,1-4.24-4.24V86.62a4.24,4.24,0,0,1,4.24-4.24h93.76m0-1H9.75a5.25,5.25,0,0,0-5.24,5.24v57.14A5.25,5.25,0,0,0,9.75,149h93.76a5.26,5.26,0,0,0,5.24-5.24V86.62a5.26,5.26,0,0,0-5.24-5.24Z" fill="#1e1e60"/><polygon points="3.12 16.01 3.12 4.24 106.05 4.24 110.13 8.12 110.13 16.01 3.12 16.01" fill="#f6f0e2"/><path d="M105.85,4.74l3.78,3.6v7.17H3.62V4.74H105.85m.4-1H2.62V16.51h108V7.91l-4.38-4.17Z" fill="#1e1e60"/><polygon points="45.55 84.25 45.55 76.37 49.63 72.49 98.03 72.49 98.03 84.25 45.55 84.25" fill="#f6f0e2"/><path d="M97.53,73V83.75H46.05V76.58L49.83,73h47.7m1-1H49.44l-4.39,4.16v8.6H98.53V72Z" fill="#1e1e60"/><line x1="59.93" y1="72.4" x2="59.93" y2="84.75" fill="#f6f0e2" stroke="#1e1e60" stroke-miterlimit="10"/><line x1="10.25" y1="119.18" x2="103" y2="119.18" fill="none" stroke="#f6f0e2" stroke-miterlimit="10"/></svg>