<svg xmlns="http://www.w3.org/2000/svg" xmlns:xlink="http://www.w3.org/1999/xlink" width="162" height="34" viewBox="0 0 162 34"><defs><linearGradient id="a" x1="0.49" y1="15.21" x2="158.29" y2="15.21" gradientUnits="userSpaceOnUse"><stop offset="0" stop-color="#79589f"/><stop offset="1" stop-color="#009edb"/></linearGradient></defs><rect x="3.71" y="4.49" width="157.8" height="28.61" fill="#1e1e60"/><rect x="0.49" y="0.9" width="157.8" height="28.61" fill="url(#a)"/><rect x="0.49" y="0.9" width="157.8" height="28.61" fill="none" stroke="#1e1e60" stroke-miterlimit="10"/><line x1="20.21" y1="0.9" x2="20.21" y2="29.51" fill="none" stroke="#1e1e60" stroke-miterlimit="10"/><line x1="39.94" y1="0.9" x2="39.94" y2="29.51" fill="none" stroke="#1e1e60" stroke-miterlimit="10"/><line x1="59.66" y1="0.9" x2="59.66" y2="29.51" fill="none" stroke="#1e1e60" stroke-miterlimit="10"/><line x1="79.39" y1="0.9" x2="79.39" y2="29.51" fill="none" stroke="#1e1e60" stroke-miterlimit="10"/><line x1="99.11" y1="0.9" x2="99.11" y2="29.51" fill="none" stroke="#1e1e60" stroke-miterlimit="10"/><line x1="118.84" y1="0.9" x2="118.84" y2="29.51" fill="none" stroke="#1e1e60" stroke-miterlimit="10"/><line x1="138.56" y1="0.9" x2="138.56" y2="29.51" fill="none" stroke="#1e1e60" stroke-miterlimit="10"/><path d="M15,14.4v2.42a7.64,7.64,0,0,1-1.24,4.11,4,4,0,0,1-3.56,2A4.09,4.09,0,0,1,8,22.32a5.72,5.72,0,0,1-1.74-2.16,7.11,7.11,0,0,1-.82-3.34V14.4a7.63,7.63,0,0,1,1.23-4.11,4,4,0,0,1,3.55-2,4.17,4.17,0,0,1,2.24.58,5.57,5.57,0,0,1,1.75,2.16A7,7,0,0,1,15,14.4Zm-2.22,0a5.1,5.1,0,0,0-1-3.14,1.88,1.88,0,0,0-1.6-.74,2,2,0,0,0-1.63.81,4.87,4.87,0,0,0-1,3.07v2.42a5.08,5.08,0,0,0,1,3.14,1.9,1.9,0,0,0,1.6.74,2,2,0,0,0,1.63-.82,4.9,4.9,0,0,0,1-3.06Z" fill="#f6f0e2"/><path d="M34.72,14.4v2.42a7.56,7.56,0,0,1-1.24,4.11,3.94,3.94,0,0,1-3.55,2,4.09,4.09,0,0,1-2.25-.58,5.63,5.63,0,0,1-1.74-2.16,7.12,7.12,0,0,1-.83-3.34V14.4a7.64,7.64,0,0,1,1.24-4.11,4,4,0,0,1,3.55-2,4.17,4.17,0,0,1,2.24.58,5.57,5.57,0,0,1,1.75,2.16A7,7,0,0,1,34.72,14.4Zm-2.21,0a5.1,5.1,0,0,0-1-3.14,1.88,1.88,0,0,0-1.6-.74,2,2,0,0,0-1.64.81,4.93,4.93,0,0,0-.95,3.07v2.42a5,5,0,0,0,1,3.14,1.88,1.88,0,0,0,1.6.74,2,2,0,0,0,1.62-.82,4.84,4.84,0,0,0,1-3.06Z" fill="#f6f0e2"/><path d="M54.43,14.4v2.42a7.56,7.56,0,0,1-1.24,4.11,4,4,0,0,1-3.55,2,4.15,4.15,0,0,1-2.26-.58,5.72,5.72,0,0,1-1.74-2.16,7.11,7.11,0,0,1-.82-3.34V14.4a7.56,7.56,0,0,1,1.24-4.11,3.93,3.93,0,0,1,3.54-2,4.2,4.2,0,0,1,2.25.58,5.66,5.66,0,0,1,1.75,2.16A7.13,7.13,0,0,1,54.43,14.4Zm-2.21,0a5.16,5.16,0,0,0-1-3.14,1.89,1.89,0,0,0-1.6-.74,2,2,0,0,0-1.64.81,4.87,4.87,0,0,0-1,3.07v2.42A5,5,0,0,0,48,20a1.88,1.88,0,0,0,1.6.74,2,2,0,0,0,1.62-.82,4.84,4.84,0,0,0,1-3.06Z" fill="#f6f0e2"/><path d="M74.14,14.4v2.42a7.64,7.64,0,0,1-1.24,4.11,4,4,0,0,1-3.56,2,4.12,4.12,0,0,1-2.25-.58,5.72,5.72,0,0,1-1.74-2.16,7.11,7.11,0,0,1-.82-3.34V14.4a7.63,7.63,0,0,1,1.23-4.11,4,4,0,0,1,3.55-2,4.17,4.17,0,0,1,2.24.58,5.49,5.49,0,0,1,1.75,2.16A7,7,0,0,1,74.14,14.4Zm-2.22,0a5.1,5.1,0,0,0-1-3.14,1.88,1.88,0,0,0-1.6-.74,2,2,0,0,0-1.63.81,4.87,4.87,0,0,0-1,3.07v2.42a5.08,5.08,0,0,0,1,3.14,1.9,1.9,0,0,0,1.6.74A2,2,0,0,0,71,19.88a4.9,4.9,0,0,0,1-3.06Z" fill="#f6f0e2"/><path d="M93.84,14.4v2.42a7.56,7.56,0,0,1-1.24,4.11,3.94,3.94,0,0,1-3.55,2,4.09,4.09,0,0,1-2.25-.58,5.54,5.54,0,0,1-1.74-2.16,7.12,7.12,0,0,1-.83-3.34V14.4a7.64,7.64,0,0,1,1.24-4.11,4,4,0,0,1,3.55-2,4.17,4.17,0,0,1,2.24.58A5.57,5.57,0,0,1,93,11.05,7,7,0,0,1,93.84,14.4Zm-2.21,0a5.1,5.1,0,0,0-1-3.14,1.88,1.88,0,0,0-1.6-.74,2,2,0,0,0-1.64.81,4.93,4.93,0,0,0-1,3.07v2.42a5,5,0,0,0,1,3.14,1.88,1.88,0,0,0,1.6.74,2,2,0,0,0,1.62-.82,4.84,4.84,0,0,0,1-3.06Z" fill="#f6f0e2"/><path d="M109.86,8.31V20.37h2.23a1.68,1.68,0,0,1,1.13.31,1,1,0,0,1,.34.8,1,1,0,0,1-.34.79,1.63,1.63,0,0,1-1.13.31h-6.66a1.64,1.64,0,0,1-1.13-.31,1.1,1.1,0,0,1,0-1.59,1.7,1.7,0,0,1,1.13-.31h2.23V11.18l-2,.52a2.75,2.75,0,0,1-.71.13.94.94,0,0,1-.72-.33,1.16,1.16,0,0,1-.31-.82,1,1,0,0,1,.23-.69,2,2,0,0,1,.94-.45Z" fill="#f6f0e2"/><path d="M126.39,20.37h4.83a1.22,1.22,0,0,1,.75-.32,1,1,0,0,1,.8.34,1.7,1.7,0,0,1,.29,1.14v1H123V20.25a88,88,0,0,0,7.2-6.33,2.13,2.13,0,0,0,.62-1.36,1.86,1.86,0,0,0-.7-1.42,2.72,2.72,0,0,0-1.88-.62,2.93,2.93,0,0,0-2,.68,2.55,2.55,0,0,0-.65,1.09,1.27,1.27,0,0,1-.42.65,1,1,0,0,1-.65.19,1.1,1.1,0,0,1-.78-.32,1,1,0,0,1-.33-.76,3.29,3.29,0,0,1,.6-1.61,4.32,4.32,0,0,1,1.74-1.55,5.56,5.56,0,0,1,2.49-.58,4.75,4.75,0,0,1,3.42,1.27A4,4,0,0,1,133,12.64a3.74,3.74,0,0,1-.38,1.69,8.68,8.68,0,0,1-1.83,2.15C130.07,17.21,128.59,18.5,126.39,20.37Z" fill="#f6f0e2"/><path d="M153,14.4v2.42a7.56,7.56,0,0,1-1.24,4.11,3.94,3.94,0,0,1-3.55,2,4.09,4.09,0,0,1-2.25-.58,5.54,5.54,0,0,1-1.74-2.16,7.12,7.12,0,0,1-.83-3.34V14.4a7.64,7.64,0,0,1,1.24-4.11,4,4,0,0,1,3.55-2,4.17,4.17,0,0,1,2.24.58,5.57,5.57,0,0,1,1.75,2.16A7,7,0,0,1,153,14.4Zm-2.21,0a5.1,5.1,0,0,0-1-3.14,1.88,1.88,0,0,0-1.6-.74,2,2,0,0,0-1.64.81,4.93,4.93,0,0,0-.95,3.07v2.42a5,5,0,0,0,1,3.14,1.88,1.88,0,0,0,1.6.74,2,2,0,0,0,1.62-.82,4.84,4.84,0,0,0,1-3.06Z" fill="#f6f0e2"/></svg>